<svg width="113" height="59" viewBox="0 0 113 59" fill="none" xmlns="http://www.w3.org/2000/svg">
<path d="M101.663 39.2529C100.328 38.5534 100.12 36.5769 100.15 31.7696L100.179 24.4024L97.6276 24.3994L98.2211 23.0361H100.179V19.5474L104.867 17.8031V22.92L107.033 22.923L106.47 24.4351L104.867 24.4321V37.1812C104.956 38.2081 105.312 38.8124 105.787 39.2529H101.663Z" fill="#C6003D"/>
<path d="M32.2331 50.9393C32.0847 50.5256 31.788 50.2607 31.343 50.2607C30.7199 50.2607 30.4825 50.5821 30.4825 51.0257C30.4825 52.0824 32.8562 51.8889 32.8562 53.6808C32.8562 54.681 31.9957 55.4014 30.7792 55.4014C30.3638 55.4014 29.8891 55.3001 29.5331 55.065C29.6221 54.7346 29.7111 54.4071 29.7704 54.0708H29.9188C30.0078 54.6096 30.4529 54.931 30.9869 54.931C31.4617 54.931 31.9067 54.6572 31.9067 54.1184C31.9067 52.8652 29.5627 53.3207 29.5627 51.4335C29.5627 50.5345 30.1858 49.7903 31.3726 49.7903C31.9364 49.7903 32.4408 50.0017 32.5891 50.1654C32.5001 50.4154 32.4408 50.6744 32.3518 50.9393H32.2331Z" fill="#C6003D"/>
<path d="M55.4654 7.7509C55.8214 8.73618 56.6522 9.7542 56.0588 10.8972C55.7918 12.0581 54.6939 12.9988 53.5368 13.1863C52.3203 13.2964 51.1928 13.091 50.273 12.3558C49.6499 9.00408 51.0148 5.9024 53.6554 4.05389L55.4654 7.7509Z" fill="#C6003D"/>
<mask id="mask0_4064_177" style="mask-type:luminance" maskUnits="userSpaceOnUse" x="3" y="2" width="107" height="54">
<path d="M3.06657 55.4014H109.733V2.73532H3.06657V55.4014Z" fill="white"/>
</mask>
<g mask="url(#mask0_4064_177)">
<path d="M60.1236 17.964C59.5302 19.9911 53.5663 18.6605 51.6971 15.3326C54.1598 15.6064 56.9192 13.4215 56.9785 10.9301L60.1236 17.964Z" fill="#C6003D"/>
</g>
<mask id="mask1_4064_177" style="mask-type:luminance" maskUnits="userSpaceOnUse" x="3" y="2" width="107" height="54">
<path d="M3.06657 55.4014H109.733V2.73532H3.06657V55.4014Z" fill="white"/>
</mask>
<g mask="url(#mask1_4064_177)">
<path d="M62.5864 17.702C62.8534 17.5799 63.3874 17.3061 63.5358 16.7197L57.1269 2.7353C56.6818 2.68172 56.3852 2.64302 55.8214 3.03296L62.5864 17.702Z" fill="#C6003D"/>
</g>
<path d="M65.4644 14.6657C68.1942 10.5133 65.9095 3.69968 60.005 2.74417L65.4644 14.6657Z" fill="#C6003D"/>
<path d="M3.06667 46.1231H106.143V45.3313H3.06667V46.1231Z" fill="#C6003D"/>
<path d="M36.4167 52.511C36.4167 52.2074 36.1496 51.9633 35.8529 51.9633C35.5562 51.9633 35.3189 52.2074 35.3189 52.511C35.3189 52.8146 35.5562 53.0587 35.8529 53.0587C36.1496 53.0587 36.4167 52.8146 36.4167 52.511Z" fill="#C6003D"/>
<path d="M64.871 23.6046C65.7315 22.8783 67.2447 22.8634 68.2238 23.3278C68.6392 23.5362 69.0249 23.813 69.292 24.1762L67.393 27.129C67.1557 26.9385 66.9776 26.8522 66.6809 26.6974C65.7315 26.2896 64.7523 26.5277 64.1886 27.0427V35.6601C64.1589 37.1514 64.426 38.5118 65.1974 39.2172H60.8951C59.9753 38.5266 59.7676 37.4223 59.6786 36.4549L59.6489 24.9947C59.6786 24.066 59.4413 23.6582 59.0852 23.1373L63.5358 23.1552C63.8919 23.4141 63.9216 23.8636 64.0996 24.2089L64.871 23.6046Z" fill="#C6003D"/>
<path d="M70.3008 26.4384C70.2711 25.3489 70.5085 24.0452 69.7964 23.1045H73.9206C74.2173 23.3129 74.3657 23.6582 74.4547 23.9856C74.6921 24.2773 74.6624 24.6941 74.7514 25.0393L74.8108 37.2496C74.9591 37.9759 75.2558 38.7082 75.7899 39.2797L71.3689 39.2886C69.9151 37.8837 70.3898 35.5738 70.2711 33.1895L70.3008 26.4384Z" fill="#C6003D"/>
<path d="M76.858 26.5575C77.3031 25.3162 78.6976 24.6941 79.7064 24.0184C81.2493 23.4498 82.9702 22.0329 84.6911 23.1909C86.145 24.1404 87.4209 25.212 88.3406 26.6795C88.5484 27.248 88.667 27.888 88.8154 28.4923C88.8154 29.3049 88.9934 29.9092 88.9637 30.7218C89.0231 31.6029 89.0231 32.3977 88.9637 33.2609C88.9044 34.7284 88.222 36.0411 87.0648 37.0591C85.3439 38.5981 83.1779 40.3424 80.8339 39.1487C78.7273 38.1635 76.2646 36.2138 76.413 33.5348C76.324 31.6356 76.2349 29.9955 76.502 28.147C76.591 27.6112 76.5613 27.0248 76.858 26.5575ZM81.1603 35.1928C81.368 35.9548 81.7537 36.8865 82.6735 36.9907C83.2076 37.0085 83.5933 36.5591 83.9197 36.178C84.8692 34.2789 84.7208 32.2072 84.7208 30.0461C84.4241 28.4417 84.8098 26.2479 83.0889 25.2626C82.4658 25.0394 82.0208 25.4531 81.635 25.8341C80.9526 26.8521 80.8933 28.019 80.8339 29.3138C80.6262 31.3856 80.8636 33.1031 81.1603 35.1928Z" fill="#C6003D"/>
<path d="M92.0198 39.2529C90.6846 38.5534 90.4769 36.5769 90.5066 31.7696L90.5363 24.4024L88.0143 24.3994L88.578 23.0361H90.5363V19.5474L95.2539 17.8031V22.92L97.3902 22.923L96.8265 24.4351L95.2539 24.4321V37.1812C95.343 38.2081 95.699 38.8124 96.1737 39.2529H92.0198Z" fill="#C6003D"/>
<path d="M49.0565 24.9947C49.0268 24.066 48.8488 23.6582 48.4927 23.1373L52.9433 23.1552C53.2994 23.4141 53.3291 23.8636 53.5071 24.2089L54.2785 23.6046C55.139 22.8783 56.6522 22.8634 57.6313 23.3278C58.0467 23.5362 58.4324 23.813 58.6995 24.1762L56.8005 27.129C56.5632 26.9385 56.3852 26.8522 56.0884 26.6974C55.139 26.2896 54.1598 26.5277 53.5961 27.0427V35.6601C53.5664 37.1514 53.8335 38.5118 54.6049 39.2172H50.3026C49.4125 38.5266 49.1455 37.4997 49.0861 36.4549L49.0565 24.9947Z" fill="#C6003D"/>
<path d="M15.3207 29.5282L13.7185 32.8739C12.591 34.8475 11.0481 37.2675 8.67445 37.8688C7.75466 38.1903 6.92387 37.8986 6.03375 37.836L3.15567 42.5541C3.39304 42.7862 3.68975 42.9797 3.98646 43.0928C9.0305 45.0277 11.0778 42.947 16.0328 31.6624L20.7505 41.7146H27.011L24.0439 34.9308L25.7352 31.4243L30.3638 41.5598L36.3574 41.5985L25.8539 18.4758L21.0175 20.8839L24.8154 29.5133L23.1538 32.9037L16.2109 17.8775L11.1371 20.4791L15.3207 29.5282Z" fill="#C6003D"/>
<path d="M34.5771 33.6062C34.6958 31.9303 35.6156 30.3587 37.1585 29.5133C38.7013 28.5608 40.4816 28.1827 42.0838 27.3522C42.3509 27.129 42.6772 26.8522 42.7069 26.489C42.7366 26.0395 42.4992 25.6942 42.1135 25.5394C39.6805 25.0215 37.6925 26.5396 35.942 28.0428C36.1497 26.9385 36.3277 25.73 36.8618 24.6941C37.0991 24.4172 37.2772 24.0362 37.6035 23.8308C39.3244 22.9825 41.4607 22.7414 43.3597 22.8783C44.9322 22.9825 46.3861 24.1047 46.9202 25.5394C47.1872 26.2122 47.1575 26.9742 47.2169 27.6648L47.2466 37.0264C47.2466 37.836 47.6323 38.5981 48.107 39.2529H43.6564C43.1223 38.7707 42.8553 38.1635 42.7069 37.4044C41.4607 38.5117 38.8497 40.1519 37.3068 39.0624C35.7046 38.3391 34.221 35.9012 34.5771 33.6062ZM42.4696 30.3497C42.4399 29.7008 41.9948 29.6324 41.6684 29.6324C40.6003 29.7871 39.6805 30.6831 39.1464 31.6029C38.7014 32.4215 38.5827 33.1121 38.553 33.8295C38.553 34.6034 38.4937 35.1779 38.82 35.7643C38.9981 36.1453 39.3541 36.3179 39.7398 36.4192C40.4223 36.5591 41.0453 36.3685 41.5794 36.0054C42.8553 35.297 42.6179 33.8801 42.6476 32.6209L42.4696 30.3497Z" fill="#C6003D"/>
<path d="M77.0064 52.511C77.0064 52.2074 76.7394 51.9633 76.4427 51.9633C76.146 51.9633 75.9086 52.2074 75.9086 52.511C75.9086 52.8146 76.146 53.0587 76.4427 53.0587C76.7394 53.0587 77.0064 52.8146 77.0064 52.511Z" fill="#C6003D"/>
<path d="M39.6508 49.9302H41.3124C41.6684 49.9302 42.2618 49.9153 42.5882 50.088C43.0333 50.3231 43.241 50.6744 43.241 51.2072C43.241 51.9752 42.7662 52.4604 42.0245 52.6152C42.4695 53.3653 42.9443 54.0856 43.419 54.8149L43.7157 55.3001C43.4783 55.2823 43.241 55.2614 43.0036 55.2614C42.7662 55.2614 42.5586 55.2823 42.3212 55.3001L41.3717 53.657C41.253 53.4457 41.0453 53.0855 40.8673 52.7878H40.808V55.3001C40.6299 55.2823 40.4222 55.2614 40.2442 55.2614C40.0365 55.2614 39.8585 55.2823 39.6508 55.3001V49.9302ZM40.808 52.4515C41.6388 52.5289 42.0541 52.1389 42.0541 51.3322C42.0541 51.2221 42.0245 51.106 41.9948 50.9393C41.8761 50.2904 41.2827 50.3529 40.808 50.3529V52.4515Z" fill="#C6003D"/>
<path d="M47.8696 49.9302C47.84 50.0404 47.8103 50.1594 47.8103 50.2666C47.8103 50.3767 47.84 50.4958 47.8696 50.603C47.3652 50.5405 46.8608 50.4779 46.0597 50.4958V52.1776H46.8608C47.2169 52.1776 47.5432 52.1449 47.84 52.1062C47.8103 52.2163 47.7806 52.3324 47.7806 52.4425C47.7806 52.5527 47.8103 52.6718 47.84 52.7789C47.5432 52.7402 47.2169 52.7104 46.8608 52.7104H46.0597V54.6959C46.8608 54.6899 47.3652 54.6512 47.8696 54.5887C47.84 54.6959 47.8103 54.8149 47.8103 54.9251C47.8103 55.0322 47.84 55.1513 47.8696 55.2615H44.8729V49.9302H47.8696Z" fill="#C6003D"/>
<path d="M51.6675 50.9393C51.4895 50.5256 51.1928 50.2607 50.7477 50.2607C50.1543 50.2607 49.8873 50.5821 49.8873 51.0257C49.8873 52.0824 52.2609 51.8889 52.2609 53.6808C52.2609 54.681 51.4301 55.4014 50.2136 55.4014C49.7686 55.4014 49.3235 55.3001 48.9675 55.065C49.0565 54.7346 49.1455 54.4071 49.1752 54.0708H49.3235C49.4422 54.6096 49.8576 54.931 50.3917 54.931C50.8961 54.931 51.3115 54.6572 51.3115 54.1184C51.3115 52.8652 48.9971 53.3207 48.9971 51.4335C48.9971 50.5345 49.5906 49.7903 50.8071 49.7903C51.3411 49.7903 51.8455 50.0017 52.0236 50.1654C51.9345 50.4154 51.8455 50.6744 51.7862 50.9393H51.6675Z" fill="#C6003D"/>
<path d="M56.1181 55.4014C54.3972 55.4014 53.2401 54.3833 53.2401 52.6063C53.2401 51.0495 54.3675 49.7903 56.3258 49.7903C58.5511 49.7903 59.2039 51.362 59.2039 52.5765C59.2039 54.1035 58.0467 55.4014 56.1181 55.4014ZM54.5456 52.8355C54.5456 53.8505 54.9906 54.931 56.1775 54.931C57.3643 54.931 57.8984 53.7255 57.8984 52.4277C57.8984 51.4186 57.4236 50.2607 56.2665 50.2607C55.1983 50.2607 54.5456 51.0822 54.5456 52.8355Z" fill="#C6003D"/>
<path d="M60.5094 49.9302H62.171C62.527 49.9302 63.0908 49.9153 63.4171 50.088C63.8622 50.3231 64.0996 50.6744 64.0996 51.2072C64.0996 51.9752 63.5952 52.4604 62.8831 52.6152C63.3281 53.3653 63.8029 54.0856 64.2776 54.8149L64.5743 55.3001C64.3369 55.2823 64.0996 55.2614 63.8622 55.2614C63.6249 55.2614 63.3875 55.2823 63.1501 55.3001L62.2303 53.657C62.1116 53.4457 61.9039 53.0855 61.7259 52.7878H61.6666V55.3001C61.4589 55.2823 61.2808 55.2614 61.0732 55.2614C60.8951 55.2614 60.6874 55.2823 60.5094 55.3001V49.9302ZM61.6666 52.4515C62.4973 52.5289 62.8831 52.1389 62.8831 51.3322C62.8831 51.2221 62.8831 51.106 62.8534 50.9393C62.7347 50.2904 62.1413 50.3529 61.6666 50.3529V52.4515Z" fill="#C6003D"/>
<path d="M67.8975 55.3001C67.7194 55.2823 67.5117 55.2615 67.304 55.2615C67.126 55.2615 66.9183 55.2823 66.7403 55.3001V50.4869C66.1765 50.4869 65.7018 50.5405 65.2864 50.597C65.2864 50.4869 65.3161 50.3767 65.3161 50.2607C65.3161 50.1505 65.2864 50.0404 65.2864 49.9302H69.292C69.292 50.0404 69.2623 50.1505 69.2623 50.2607C69.2623 50.3767 69.292 50.4869 69.292 50.597C68.8469 50.5405 68.3722 50.4869 67.8975 50.4869V55.3001Z" fill="#C6003D"/>
<path d="M72.9415 50.9393C72.7931 50.5256 72.4964 50.2607 72.0514 50.2607C71.4283 50.2607 71.1909 50.5821 71.1909 51.0257C71.1909 52.0824 73.5646 51.8889 73.5646 53.6808C73.5646 54.681 72.7041 55.4014 71.4876 55.4014C71.0722 55.4014 70.5975 55.3001 70.2414 55.065C70.3305 54.7346 70.4195 54.4071 70.4788 54.0708H70.6272C70.7162 54.6096 71.1612 54.931 71.6953 54.931C72.17 54.931 72.5854 54.6572 72.5854 54.1184C72.5854 52.8652 70.2711 53.3207 70.2711 51.4335C70.2711 50.5345 70.8942 49.7903 72.0811 49.7903C72.6448 49.7903 73.1492 50.0017 73.2976 50.1654C73.2085 50.4154 73.1492 50.6744 73.0602 50.9393H72.9415Z" fill="#C6003D"/>
<path d="M82.5252 50.9393C82.3472 50.5256 82.0504 50.2607 81.6054 50.2607C81.012 50.2607 80.7449 50.5821 80.7449 51.0257C80.7449 52.0824 83.1186 51.8889 83.1186 53.6808C83.1186 54.681 82.2878 55.4014 81.0713 55.4014C80.6262 55.4014 80.1812 55.3001 79.8251 55.065C79.9141 54.7346 79.9735 54.4071 80.0328 54.0708H80.1812C80.2999 54.6096 80.7153 54.931 81.2493 54.931C81.7537 54.931 82.1691 54.6572 82.1691 54.1184C82.1691 52.8652 79.8548 53.3207 79.8548 51.4335C79.8548 50.5345 80.4779 49.7903 81.6351 49.7903C82.1988 49.7903 82.7032 50.0017 82.8812 50.1654C82.7922 50.4154 82.7032 50.6744 82.6439 50.9393H82.5252Z" fill="#C6003D"/>
<path d="M84.5131 49.9302C84.7208 49.9481 84.8988 49.9719 85.1065 49.9719C85.3142 49.9719 85.4922 49.9481 85.6999 49.9302V52.1538C85.6999 52.5854 85.6702 53.2254 85.7593 53.6332C85.8186 54.0172 85.8779 54.2583 86.145 54.5322C86.412 54.7673 86.7087 54.8685 87.0648 54.8685C87.7769 54.8685 88.1626 54.6036 88.4296 53.9219C88.578 53.5767 88.578 52.6866 88.578 52.3026V49.9302C88.667 49.9481 88.7857 49.9541 88.8747 49.9541C88.9934 49.9541 89.1121 49.9481 89.2011 49.9302V52.7164C89.1714 53.6094 89.2011 54.422 88.3703 54.9876C87.9549 55.2912 87.4208 55.4013 86.8867 55.4013C85.967 55.4013 84.9285 55.1037 84.6614 54.0857C84.5724 53.782 84.5131 53.4367 84.5131 53.1242V49.9302Z" fill="#C6003D"/>
<path d="M91.0407 49.9302C91.2484 49.9481 91.4561 49.9719 91.6341 49.9719C91.8418 49.9719 92.0199 49.9481 92.2276 49.9302V55.3001C92.0199 55.2823 91.8418 55.2615 91.6341 55.2615C91.4561 55.2615 91.2484 55.2823 91.0407 55.3001V49.9302Z" fill="#C6003D"/>
<path d="M96.1737 55.3001C95.9661 55.2823 95.7583 55.2615 95.5803 55.2615C95.3726 55.2615 95.1946 55.2823 94.9869 55.3001V50.4869C94.4528 50.4869 93.9484 50.5405 93.533 50.597C93.5627 50.4869 93.5924 50.3767 93.5924 50.2607C93.5924 50.1505 93.5627 50.0404 93.533 49.9302H97.5683C97.5386 50.0404 97.5089 50.1505 97.5089 50.2607C97.5089 50.3767 97.5386 50.4869 97.5683 50.597C97.0935 50.5405 96.6485 50.4869 96.1737 50.4869V55.3001Z" fill="#C6003D"/>
<path d="M101.752 49.9302C101.722 50.0404 101.722 50.1594 101.722 50.2666C101.722 50.3767 101.722 50.4958 101.752 50.603C101.277 50.5405 100.743 50.4779 99.9419 50.4958V52.1776H100.743C101.099 52.1776 101.425 52.1449 101.722 52.1062C101.693 52.2163 101.693 52.3324 101.693 52.4425C101.693 52.5527 101.693 52.6718 101.722 52.7789C101.425 52.7402 101.099 52.7104 100.743 52.7104H99.9419V54.6959C100.743 54.6899 101.277 54.6512 101.752 54.5887C101.722 54.6959 101.722 54.8149 101.722 54.9251C101.722 55.0322 101.722 55.1513 101.752 55.2615H98.7848V49.9302H101.752Z" fill="#C6003D"/>
<path d="M105.55 50.9393C105.401 50.5256 105.105 50.2607 104.66 50.2607C104.037 50.2607 103.799 50.5821 103.799 51.0257C103.799 52.0824 106.173 51.8889 106.173 53.6808C106.173 54.681 105.312 55.4014 104.096 55.4014C103.681 55.4014 103.206 55.3001 102.85 55.065C102.939 54.7346 103.028 54.4071 103.057 54.0708H103.206C103.324 54.6096 103.74 54.931 104.304 54.931C104.778 54.931 105.194 54.6572 105.194 54.1184C105.194 52.8652 102.879 53.3207 102.879 51.4335C102.879 50.5345 103.502 49.7903 104.689 49.7903C105.253 49.7903 105.757 50.0017 105.906 50.1654C105.817 50.4154 105.757 50.6744 105.668 50.9393H105.55Z" fill="#C6003D"/>
<path d="M3.21503 49.9302C3.42272 49.9481 3.60074 49.9719 3.80843 49.9719C3.98646 49.9719 4.19416 49.9481 4.40185 49.9302V52.0526C4.78757 52.0675 5.20297 52.0913 5.58868 52.0913C5.97441 52.0913 6.38981 52.0675 6.77552 52.0526V49.9302C6.98321 49.9481 7.16124 49.9719 7.36893 49.9719C7.54696 49.9719 7.75466 49.9481 7.96235 49.9302V55.3001C7.75466 55.2823 7.54696 55.2615 7.36893 55.2615C7.16124 55.2615 6.98321 55.2823 6.77552 55.3001V52.6777C6.38981 52.6628 5.97441 52.639 5.58868 52.639C5.20297 52.639 4.78757 52.6628 4.40185 52.6777V55.3001C4.19416 55.2823 3.98646 55.2615 3.80843 55.2615C3.60074 55.2615 3.42272 55.2823 3.21503 55.3001V49.9302Z" fill="#C6003D"/>
<path d="M12.235 55.4014C10.5141 55.4014 9.32721 54.3833 9.32721 52.6063C9.32721 51.0495 10.4844 49.7903 12.413 49.7903C14.6383 49.7903 15.2911 51.362 15.2911 52.5765C15.2911 54.1035 14.1339 55.4014 12.235 55.4014ZM10.6327 52.8355C10.6327 53.8505 11.1075 54.931 12.2646 54.931C13.4515 54.931 14.0152 53.7255 14.0152 52.4277C14.0152 51.4186 13.5405 50.2607 12.3536 50.2607C11.2855 50.2607 10.6327 51.0822 10.6327 52.8355Z" fill="#C6003D"/>
<path d="M18.1988 55.3001C18.0208 55.2823 17.8131 55.2615 17.635 55.2615C17.4274 55.2615 17.2493 55.2823 17.0416 55.3001V50.4869C16.4779 50.4869 16.0031 50.5405 15.5878 50.597C15.6174 50.4869 15.6174 50.3767 15.6174 50.2607C15.6174 50.1505 15.6174 50.0404 15.5878 49.9302H19.5933C19.5933 50.0404 19.5636 50.1505 19.5636 50.2607C19.5636 50.3767 19.5933 50.4869 19.5933 50.597C19.1483 50.5405 18.6735 50.4869 18.1988 50.4869V55.3001Z" fill="#C6003D"/>
<path d="M23.7472 49.9302C23.7472 50.0404 23.7176 50.1594 23.7176 50.2666C23.7176 50.3767 23.7472 50.4958 23.7472 50.603C23.2725 50.5405 22.7384 50.4779 21.9373 50.4958V52.1776H22.7681C23.1242 52.1776 23.4209 52.1449 23.7176 52.1062C23.6879 52.2163 23.6879 52.3324 23.6879 52.4425C23.6879 52.5527 23.6879 52.6718 23.7176 52.7789C23.4209 52.7402 23.1242 52.7104 22.7681 52.7104H21.9373V54.6959C22.7384 54.6899 23.2725 54.6512 23.7472 54.5887C23.7472 54.6959 23.7176 54.8149 23.7176 54.9251C23.7176 55.0322 23.7472 55.1513 23.7472 55.2615H20.7802V49.9302H23.7472Z" fill="#C6003D"/>
<path d="M26.4176 54.6959C27.1001 54.6959 27.6638 54.6423 28.1979 54.5887C28.1682 54.6959 28.1385 54.8149 28.1385 54.9251C28.1385 55.0322 28.1682 55.1513 28.1979 55.2615H25.2308V49.9302C25.4385 49.9481 25.6165 49.9719 25.8242 49.9719C26.0319 49.9719 26.2099 49.9481 26.4176 49.9302V54.6959Z" fill="#C6003D"/>
<path d="M106.351 37.8509C106.351 36.8925 107.122 36.187 108.042 36.187C108.962 36.187 109.733 36.8925 109.733 37.8509C109.733 38.8154 108.962 39.5209 108.042 39.5209C107.122 39.5209 106.351 38.8154 106.351 37.8509ZM108.042 39.244C108.814 39.244 109.407 38.6546 109.407 37.8509C109.407 37.0621 108.814 36.4638 108.042 36.4638C107.3 36.4638 106.677 37.0621 106.677 37.8509C106.677 38.6546 107.3 39.244 108.042 39.244ZM107.686 38.8154H107.419V36.8924H108.131C108.576 36.8924 108.814 37.0621 108.814 37.4402C108.814 37.7854 108.606 37.9343 108.309 37.97L108.873 38.8154H108.546L108.042 37.9819H107.686V38.8154ZM108.042 37.7349C108.279 37.7349 108.517 37.717 108.517 37.4223C108.517 37.1842 108.309 37.1395 108.101 37.1395H107.686V37.7349H108.042Z" fill="#C6003D"/>
</svg>
