<svg width="83" height="59" viewBox="0 0 83 59" fill="none" xmlns="http://www.w3.org/2000/svg">
<g clip-path="url(#clip0_4064_130)">
<path d="M2.93356 51.6656C2.93356 51.5994 2.97768 51.202 2.82328 51.1799H1.14696C0.507308 51.1799 0.485251 51.3344 0.286739 51.9085L0.110284 52.1513L0 52.0189L0.110284 51.0032C0.110284 50.8708 0.110284 50.6058 0.286739 50.6058C1.10284 50.6058 1.89689 50.65 3.24236 50.65C5.13925 50.65 6.0877 50.6058 6.28621 50.6058C6.52883 50.6058 6.57295 50.6721 6.595 50.9149L6.63912 51.7539L6.52883 51.9747C6.15387 51.9747 6.70529 51.1799 5.64656 51.1799H4.19081C3.72761 51.1799 3.77173 51.1357 3.77173 51.6877V57.0086C3.77173 57.8917 4.60989 57.5385 4.60989 57.8696L4.52166 58.0021C4.27903 58.0021 3.97024 57.958 3.6835 57.958C2.51448 57.958 2.31597 58.0021 2.2498 58.0021L2.11746 57.8696C2.11746 57.6268 2.93356 57.7151 2.93356 57.0969V51.6656Z" fill="#2A2A2A"/>
<path d="M6.88174 53.189C6.88174 52.637 6.22003 52.7916 6.22003 52.615L6.35237 52.5266C6.63911 52.5266 6.90379 52.5487 7.19053 52.5487C7.43316 52.5487 7.67578 52.5266 7.89635 52.5266L8.05075 52.615C8.05075 52.7695 7.49933 52.615 7.49933 53.189V54.8449L7.60961 54.9773H10.4108L10.477 54.7566V53.189C10.477 52.6591 9.90353 52.7916 9.90353 52.615L10.0359 52.5266C10.2785 52.5266 10.6976 52.5487 10.8299 52.5487C11.1167 52.5487 11.2269 52.5266 11.3813 52.5266C11.5799 52.5266 11.6019 52.615 11.6019 52.6591C11.6019 52.7916 11.0946 52.6591 11.0946 53.189V57.2735C11.0946 57.8255 11.8004 57.693 11.8004 57.8917L11.7122 57.98C11.5137 57.98 11.2711 57.9579 10.9843 57.9579C10.4991 57.9579 10.2785 57.98 10.1241 57.98L9.94764 57.8696C9.94764 57.693 10.477 57.8034 10.477 57.3177V55.4631L10.4108 55.2644H7.58756L7.49933 55.3968V57.3177C7.49933 57.8475 8.22721 57.6709 8.22721 57.9138L8.09487 57.98C7.98458 57.98 7.43316 57.9579 7.03614 57.9579C6.48471 57.9579 6.39649 57.98 6.37443 57.98L6.2862 57.8696C6.2862 57.6488 6.88174 57.8917 6.88174 57.141V53.189Z" fill="#2A2A2A"/>
<path d="M13.2341 54.7786C13.2341 55.0436 13.2121 55.0436 13.5209 55.0436H14.359C15.1531 55.0436 14.9546 54.4254 15.131 54.4254L15.2192 54.5799C15.2192 54.8449 15.1972 55.1098 15.1972 55.3527C15.1972 55.5514 15.2192 55.7501 15.2192 55.9488L15.131 56.0592C14.8884 56.0592 15.1531 55.3748 14.5134 55.3748H13.3665C13.2121 55.3748 13.2341 55.5072 13.2341 55.6176V57.0306C13.2341 57.4943 13.168 57.6709 13.8076 57.6709C15.5722 57.6709 15.8368 56.8761 15.9471 56.8761L16.0133 56.9644C16.0133 57.2514 15.8148 57.5164 15.6383 57.7151C15.3957 58.0021 15.2192 57.98 14.8884 57.98C14.3149 57.98 13.7194 57.9359 13.1459 57.9579C12.8371 57.9579 12.5062 57.98 12.2195 57.98L12.1092 57.8917C12.1313 57.8034 12.1975 57.8255 12.4401 57.693C12.6386 57.6047 12.6606 57.3839 12.6606 57.0306V53.5202C12.6606 53.1669 12.6606 52.8137 12.2416 52.7474L12.021 52.615C12.021 52.5487 12.0651 52.5266 12.2857 52.5266C13.7414 52.5266 14.1385 52.5487 14.4693 52.5487C14.6237 52.5487 15.3295 52.5266 15.5722 52.5266L15.6383 52.7033C15.6383 53.5643 15.528 53.6085 15.4839 53.6085C15.3075 53.6085 15.4178 53.2331 15.3075 53.0565C15.109 52.7916 14.3149 52.8357 14.0061 52.8357C13.2782 52.8357 13.2782 52.8137 13.2782 53.3215V54.7786H13.2341Z" fill="#2A2A2A"/>
<path d="M20.4688 53.9838C20.4688 54.1825 21.1084 54.1384 21.6157 54.1384C22.0569 54.1384 23.0715 53.9397 23.0715 52.6591C23.0715 51.3786 22.101 50.9591 21.0864 50.9591C20.7114 50.9591 20.4908 50.937 20.4908 51.3344V53.9838H20.4688ZM24.2626 56.854C25.0125 58.0021 25.5198 57.6047 25.5198 57.8696L24.836 58.0021C24.0861 58.0021 23.667 57.4722 23.27 56.8761L22.123 55.0436C21.7481 54.4475 21.9025 54.4916 20.7335 54.4916C20.4026 54.4916 20.4688 54.6903 20.4688 54.7786V56.9865C20.4688 57.8917 21.5496 57.5605 21.5496 57.9138L21.3731 58.0021C21.2849 58.0021 21.0423 57.9579 20.182 57.9579C19.785 57.9579 19.388 58.0021 18.991 58.0021L18.8807 57.8917C18.8807 57.6268 19.6306 57.7813 19.6306 56.9865V51.6656C19.6306 50.6721 18.7263 51.0915 18.7263 50.7383L18.9248 50.6058C19.1013 50.6058 19.0571 50.65 19.5865 50.65C20.182 50.65 20.7776 50.6058 21.329 50.6058C21.5055 50.6058 23.7994 50.4071 23.7994 52.4163C23.7994 53.2332 23.2259 53.9397 22.476 54.2267L24.2626 56.854Z" fill="#2A2A2A"/>
<path d="M26.2918 53.189C26.2918 52.637 25.6742 52.7916 25.6742 52.615L25.7624 52.5266C26.0492 52.5266 26.3138 52.5487 26.6006 52.5487C26.8432 52.5487 27.0858 52.5266 27.3064 52.5266L27.4608 52.615C27.4608 52.7916 26.9094 52.615 26.9094 53.189V57.3177C26.9094 57.8475 27.5931 57.6709 27.5931 57.8917L27.4387 57.9579C27.2623 57.9579 26.9314 57.9359 26.6006 57.9359C26.1374 57.9359 25.9609 57.9579 25.8727 57.9579L25.7183 57.8475C25.7183 57.6268 26.3138 57.8696 26.3138 57.119V53.189H26.2918Z" fill="#2A2A2A"/>
<path d="M30.1517 53.3215L30.0856 52.9682H28.8283C28.3431 52.9682 28.3431 53.0786 28.1887 53.4981L28.0563 53.6747L27.9902 53.5864L28.0784 52.8357L28.2107 52.5266C28.8063 52.5266 29.4018 52.5487 30.3944 52.5487C31.784 52.5487 32.4898 52.5266 32.6442 52.5266C32.8206 52.5266 32.8647 52.5708 32.8647 52.7474L32.9089 53.3656L32.8206 53.5422C32.5339 53.5422 32.953 52.9682 32.1589 52.9682H31.0561C30.7032 52.9682 30.7473 52.9461 30.7473 53.3435V57.2514C30.7473 57.8917 31.3649 57.6488 31.3649 57.8917L31.2987 57.98C31.1222 57.98 30.9017 57.9579 30.6811 57.9579C29.8209 57.9579 29.6665 57.98 29.6224 57.98L29.5342 57.8696C29.5342 57.693 30.1517 57.7592 30.1517 57.2956V53.3215Z" fill="#2A2A2A"/>
<path d="M34.2543 57.2735L34.144 57.5164C34.144 57.6047 34.2764 57.6267 34.4528 57.6267H35.8865C36.8791 57.6267 36.857 57.1189 37.1438 57.1189L37.1879 57.2514L36.9232 57.7592C36.835 57.9358 36.7247 57.9579 36.5482 57.9579H33.4162L33.2838 57.8475L33.3279 57.693L36.0409 53.1669L36.1733 52.9461L36.1071 52.902H34.4969C33.4382 52.902 33.7029 53.7189 33.4603 53.7189L33.35 53.6306L33.4603 52.8357C33.4823 52.6149 33.5044 52.5929 33.747 52.5929H36.7247C36.9011 52.5929 36.9453 52.637 36.9453 52.7253L36.8791 52.9461L34.2543 57.2735Z" fill="#2A2A2A"/>
<path d="M39.2833 55.0657L39.6362 54.9332L39.7244 55.1761C39.7244 55.5514 39.7465 55.5514 39.4377 55.6397L37.8496 56.2137L37.4967 56.3462L37.4085 56.1254C37.4085 55.728 37.3864 55.7501 37.6952 55.6397L39.2833 55.0657Z" fill="#2A2A2A"/>
<path d="M44.3343 50.5175C46.2974 50.5175 46.8268 51.3123 47.1355 51.3123L47.3782 51.2019C47.4885 51.2019 47.4885 51.3785 47.5326 52.0409C47.5546 52.5929 47.6429 52.9461 47.4664 52.9461L47.2238 52.5929C46.5841 51.4669 45.8342 50.8045 44.4887 50.8045C42.4595 50.8045 41.4669 52.1513 41.4669 54.0942C41.4669 55.9046 42.5036 57.715 44.5108 57.715C46.143 57.715 47.1797 56.6774 47.3341 56.1916L47.4885 56.0592L47.5767 56.1696L47.3341 57.2072C47.312 57.2514 46.5841 58.0241 44.2461 58.0241C42.1066 58.0241 40.5847 56.5449 40.5847 54.4033C40.5847 52.2617 42.1286 50.5175 44.3343 50.5175Z" fill="#2A2A2A"/>
<path d="M49.3633 55.3748L49.4736 55.5072H50.9955C51.172 55.5072 51.1499 55.4631 51.1278 55.3527L50.3779 53.4981H50.2456L49.3633 55.3748ZM51.4366 56.1475C51.3705 55.9709 51.3043 55.8605 51.1058 55.8605H49.4074C49.253 55.8605 49.1207 55.8605 49.0545 56.015L48.5692 57.0969L48.5251 57.3618C48.5251 57.8917 49.0765 57.6709 49.0765 57.8696L48.878 57.98C48.6575 57.98 48.459 57.9579 48.2384 57.9579C48.0399 57.9579 47.8193 57.98 47.6208 57.98L47.5546 57.8917C47.5546 57.7372 47.9075 57.8696 48.106 57.4281L49.9368 53.4981C50.4 52.5267 50.422 52.4163 50.5102 52.4163L50.6646 52.7033L52.2527 56.6553C52.363 56.9423 52.4513 57.2735 52.6277 57.5384C52.8483 57.8917 53.3115 57.7151 53.3115 57.9138L53.2012 57.98C52.8924 57.98 52.5615 57.9579 52.2527 57.9579C52.0542 57.9579 51.8337 57.98 51.6351 57.98L51.4587 57.9138C51.4587 57.7372 51.9219 57.8034 51.9219 57.5164C51.9219 57.3397 51.7675 56.9865 51.6793 56.7878L51.4366 56.1475Z" fill="#2A2A2A"/>
<path d="M54.5467 55.0215C54.5467 55.176 55.0319 55.1319 55.3848 55.1319C55.7157 55.1319 56.4435 54.9994 56.4435 54.05C56.4435 53.1228 55.7377 52.7916 54.9657 52.7916C54.679 52.7916 54.5246 52.7695 54.5246 53.0786V55.0215H54.5467ZM57.3258 57.141C57.8772 57.98 58.2522 57.693 58.2522 57.8917L57.7449 57.98C57.1935 57.98 56.8847 57.5826 56.5979 57.141L55.7377 55.7942C55.451 55.3748 55.5833 55.3968 54.7231 55.3968C54.4805 55.3968 54.5246 55.5293 54.5246 55.6176V57.2293C54.5246 57.8917 55.3186 57.6488 55.3186 57.9138L55.1863 57.98C55.1201 57.98 54.9437 57.9579 54.304 57.9579C54.0173 57.9579 53.7306 57.98 53.4218 57.98L53.3556 57.8917C53.3556 57.693 53.907 57.8034 53.907 57.2293V53.3215C53.907 52.5929 53.2453 52.902 53.2453 52.637L53.3997 52.5487C53.532 52.5487 53.51 52.5708 53.885 52.5708C54.3261 52.5708 54.7672 52.5487 55.1643 52.5487C55.2966 52.5487 56.9729 52.3942 56.9729 53.8734C56.9729 54.4695 56.5538 54.9773 56.0024 55.1981L57.3258 57.141Z" fill="#2A2A2A"/>
<path d="M59.6859 57.0306C59.6859 57.4943 59.6197 57.6709 60.2594 57.6709C62.0239 57.6709 62.2886 56.8761 62.3989 56.8761L62.465 56.9644C62.465 57.2514 62.2665 57.5164 62.0901 57.7151C61.8474 58.0021 61.671 57.98 61.3401 57.98C60.7667 57.98 60.1711 57.9359 59.5976 57.9579C59.2889 57.9579 58.958 57.98 58.6713 57.98L58.561 57.9138C58.583 57.8255 58.6492 57.8255 58.8918 57.7151C59.0903 57.6268 59.1124 57.406 59.1124 57.0527V53.1448C59.1124 52.7474 58.4727 52.7916 58.4727 52.637L58.6271 52.5266C58.7815 52.5266 59.0242 52.5487 59.3991 52.5487C59.8403 52.5487 60.0167 52.5266 60.127 52.5266L60.2814 52.637C60.2814 52.8137 59.73 52.615 59.73 53.2994V57.0306H59.6859Z" fill="#2A2A2A"/>
<path d="M63.8105 53.3215L63.7444 52.9682H62.4871C62.0019 52.9682 62.0019 53.0786 61.8475 53.4981L61.7151 53.6747L61.649 53.5864L61.7372 52.8357L61.8695 52.5266C62.4651 52.5266 63.0606 52.5487 64.0532 52.5487C65.4427 52.5487 66.1486 52.5266 66.303 52.5266C66.4794 52.5266 66.5235 52.5708 66.5235 52.7474L66.5676 53.3656L66.4794 53.5422C66.1927 53.5422 66.6118 52.9682 65.8177 52.9682H64.7149C64.3619 52.9682 64.4061 52.9461 64.4061 53.3435V57.2514C64.4061 57.8917 65.0237 57.6488 65.0237 57.8917L64.9575 57.98C64.781 57.98 64.5605 57.9579 64.3399 57.9579C63.4797 57.9579 63.3253 57.98 63.2812 57.98L63.1929 57.8696C63.1929 57.693 63.8105 57.7592 63.8105 57.2956V53.3215Z" fill="#2A2A2A"/>
<path d="M67.2735 54.9994C67.2735 56.4125 68.1999 57.8034 69.7218 57.8034C70.8467 57.8034 71.751 56.8982 71.751 55.4852C71.751 54.0942 70.8026 52.7254 69.3027 52.7254C68.0234 52.7254 67.2735 53.7851 67.2735 54.9994ZM66.722 55.2202C66.722 53.6306 67.9572 52.4604 69.5453 52.4604C71.1114 52.4604 72.3245 53.5864 72.3245 55.1761C72.3245 56.8982 71.1334 58.0242 69.413 58.0242C67.7367 58.0242 66.722 56.854 66.722 55.2202Z" fill="#2A2A2A"/>
<path d="M73.2288 54.05C73.2288 52.4604 72.3024 52.902 72.3024 52.6149L72.4127 52.5266L72.7656 52.5487L73.1185 52.5266L73.317 52.7033L76.9785 56.7878L77.0667 56.8761L77.0888 56.7878V53.5643C77.0888 52.5487 76.2286 52.8578 76.2286 52.5929L76.3168 52.5045C76.5374 52.5045 76.78 52.5266 77.0226 52.5266C77.2873 52.5266 77.6181 52.5045 77.7946 52.5045L77.8608 52.5708C77.8608 52.7695 77.3976 52.637 77.3976 53.189V57.6488C77.3976 57.8696 77.3976 57.98 77.3314 57.98C77.2873 57.98 77.1991 57.9358 77.0447 57.7592L73.7361 54.028L73.5817 53.8734C73.5597 53.8734 73.5376 53.8955 73.5376 54.05V57.2514C73.5376 57.9358 74.2214 57.6709 74.2214 57.8917L74.1332 58.0021C73.9567 58.0021 73.7361 57.98 73.3612 57.98C73.0965 57.98 72.6995 58.0021 72.6333 58.0021L72.523 57.9138C72.523 57.6488 73.2068 57.98 73.2068 56.8981V54.05H73.2288Z" fill="#2A2A2A"/>
<path d="M80.2429 53.6306H80.6179V52.7695H80.9267C81.1252 52.7695 81.2796 52.7916 81.3457 52.8357C81.4781 52.9241 81.5443 53.0786 81.5443 53.3215V53.4981V53.5643V53.5864V53.6085H81.8972L81.8751 53.5864L81.853 53.476V53.3215V53.1669L81.7428 52.8357C81.6545 52.7253 81.5443 52.6591 81.3678 52.615L81.6766 52.5046C81.8089 52.4162 81.8972 52.2617 81.8972 52.0851C81.8972 51.8201 81.7869 51.6214 81.5663 51.5331C81.434 51.489 81.2355 51.4448 80.9708 51.4448H80.2208V53.6306H80.2429ZM81.3237 52.4604C81.2355 52.4825 81.1252 52.5046 80.9708 52.5046H80.6179V51.7318H80.9487C81.1693 51.7318 81.3016 51.7539 81.4119 51.8201C81.5001 51.8643 81.5663 51.9747 81.5663 52.1292C81.5442 52.2838 81.4781 52.4162 81.3237 52.4604ZM82.4265 51.1578C82.0516 50.7824 81.5884 50.5837 81.0369 50.5837C80.4855 50.5837 80.0444 50.7824 79.6474 51.1578C79.2724 51.5331 79.0739 51.9968 79.0739 52.5487C79.0739 53.1007 79.2724 53.5643 79.6474 53.9397C80.0223 54.3371 80.4855 54.5137 81.0369 54.5137C81.5884 54.5137 82.0516 54.315 82.4265 53.9397C82.8015 53.5643 83 53.0786 83 52.5487C83 52.0188 82.8236 51.5552 82.4265 51.1578ZM82.228 51.3565C82.5589 51.6877 82.7133 52.0851 82.7133 52.5487C82.7133 53.0124 82.5589 53.4319 82.228 53.763C81.8972 54.0942 81.5001 54.2708 81.0369 54.2708C80.5737 54.2708 80.1767 54.0942 79.8459 53.763C79.515 53.4319 79.3606 53.0344 79.3606 52.5487C79.3606 52.0851 79.515 51.6877 79.8459 51.3565C80.1767 51.0253 80.5737 50.8487 81.0369 50.8487C81.5001 50.8487 81.8972 51.0253 82.228 51.3565Z" fill="#2A2A2A"/>
<path d="M41.8419 43.2758C41.5331 43.2758 41.2905 43.5186 41.2905 43.8277C41.2905 44.1368 41.5331 44.3797 41.8419 44.3797C42.1507 44.3797 42.3933 44.1368 42.3933 43.8277C42.3933 43.5186 42.1507 43.2758 41.8419 43.2758Z" fill="#2A2A2A"/>
<path d="M32.3574 44.6447C31.9384 44.6447 31.5854 44.2914 31.5854 43.8719C31.5854 43.4524 31.9384 43.0992 32.3574 43.0992C32.7765 43.0992 33.1294 43.4524 33.1294 43.8719C33.1294 44.2914 32.7765 44.6447 32.3574 44.6447ZM33.7911 42.4589H30.9458C30.4826 42.4589 30.1076 42.8342 30.1076 43.2979V44.446C30.1076 44.9096 30.4826 45.2849 30.9458 45.2849H33.7911C34.2543 45.2849 34.6293 44.9096 34.6293 44.446V43.2979C34.6072 42.8121 34.2323 42.4589 33.7911 42.4589Z" fill="#2A2A2A"/>
<path d="M38.7319 44.6226C38.3128 44.6226 37.9599 44.2693 37.9599 43.8498C37.9599 43.4303 38.3128 43.0771 38.7319 43.0771C39.1509 43.0771 39.5038 43.4303 39.5038 43.8498C39.5038 44.2693 39.1509 44.6226 38.7319 44.6226ZM40.1656 42.4589H37.3202C36.857 42.4589 36.4821 42.8342 36.4821 43.2979V44.446C36.4821 44.9096 36.857 45.2849 37.3202 45.2849H40.1656C40.6287 45.2849 41.0037 44.9096 41.0037 44.446V43.2979C40.9817 42.8342 40.6067 42.4589 40.1656 42.4589Z" fill="#2A2A2A"/>
<path d="M44.9519 44.6226C44.5328 44.6226 44.1799 44.2693 44.1799 43.8498C44.1799 43.4303 44.5328 43.0771 44.9519 43.0771C45.371 43.0771 45.7239 43.4303 45.7239 43.8498C45.7239 44.2914 45.371 44.6226 44.9519 44.6226ZM46.3415 42.5031H43.4962C43.033 42.5031 42.658 42.8784 42.658 43.342V44.4901C42.658 44.9538 43.033 45.3291 43.4962 45.3291H46.3415C46.8047 45.3291 47.1796 44.9538 47.1796 44.4901V43.342C47.1796 42.8563 46.8047 42.5031 46.3415 42.5031Z" fill="#2A2A2A"/>
<path d="M35.5336 43.2979C35.2248 43.2979 34.9822 43.5407 34.9822 43.8498C34.9822 44.1589 35.2248 44.4018 35.5336 44.4018C35.8424 44.4018 36.085 44.1589 36.085 43.8498C36.085 43.5628 35.8424 43.2979 35.5336 43.2979Z" fill="#2A2A2A"/>
<path d="M29.4018 43.2979C29.093 43.2979 28.8504 43.5407 28.8504 43.8498C28.8504 44.1589 29.093 44.4018 29.4018 44.4018C29.7106 44.4018 29.9532 44.1589 29.9532 43.8498C29.9532 43.5407 29.7106 43.2979 29.4018 43.2979Z" fill="#2A2A2A"/>
<path d="M49.6721 41.377H27.6593L27.4387 41.1563L27.6593 40.9355H49.6721L49.8926 41.1563L49.6721 41.377ZM48.7457 45.5057H28.8283C27.3946 45.4615 28.6298 45.3732 28.6298 44.6667V42.9667C28.6078 42.3043 27.3505 42.1277 28.8283 42.1277H48.7457C50.0691 42.1277 48.7677 42.2823 48.7898 42.9667V44.6667C48.8118 45.3512 49.9809 45.4615 48.7457 45.5057ZM49.253 46.4992H28.1666L27.9461 46.2785L28.1666 46.0577H49.253L49.4736 46.2785L49.253 46.4992ZM54.4584 32.6119C53.8849 32.8768 53.4217 33.5171 52.8924 33.76C52.5174 34.0912 52.0542 34.2457 51.6131 34.4444C51.3925 34.9743 52.0322 35.1509 51.9219 35.6808C51.8116 35.9458 51.4807 36.299 51.1719 36.1886C50.8631 36.0561 50.3558 35.2392 50.1353 35.2172C49.9147 35.1951 48.9662 35.9678 48.9001 36.2328C48.8339 36.4977 49.2309 37.5354 49.5177 37.6237C49.7824 37.712 50.047 37.2925 50.5985 37.4029C50.9514 37.6016 51.1499 38.2419 51.1058 38.551C51.0396 38.8601 50.6426 39.9861 49.3192 39.9419C47.7752 39.8978 47.2899 38.2419 47.334 37.8003C47.4002 37.3808 48.106 36.3652 48.1943 36.1445C48.2825 35.9016 47.5105 34.3119 47.2458 34.2457C47.0032 34.1795 45.6798 35.2172 45.6136 35.5704C45.5474 35.9458 45.9886 37.1601 45.9886 37.4912C45.9886 37.8224 45.5474 39.3017 43.0991 39.2575C40.6508 39.2134 40.5185 37.8887 40.5185 37.4029C40.5185 36.9172 41.2463 36.299 41.7537 36.299C42.3271 36.299 43.1653 36.9834 43.43 36.9834C43.6947 36.9834 44.6872 35.747 44.6872 35.5263C44.6872 35.3055 43.7388 33.9587 43.4079 33.9587C43.1873 33.9587 42.1727 35.0405 41.511 35.0405C40.8493 35.0405 40.342 34.8639 40.342 34.2899C40.342 33.495 41.6654 33.1197 41.6654 32.7885C41.6654 32.6119 40.8714 32.1483 40.2097 31.5742C39.57 31.0223 39.0627 30.382 38.8863 30.382C38.7098 30.3599 38.026 31.0885 37.3423 31.6625C36.7026 32.1703 36.085 32.5236 36.085 32.7002C36.085 33.0976 37.4526 33.5613 37.4305 34.1132C37.4084 34.6652 37.0776 34.9964 36.3497 34.9964C35.6218 34.9964 34.8278 34.0249 34.5631 34.0249C34.2984 34.0249 33.2838 35.2172 33.2838 35.5483C33.2838 35.8795 34.2323 37.0497 34.6293 37.0497C35.0263 37.0497 35.4674 36.1445 36.3497 36.1665C37.232 36.1886 37.5408 36.7627 37.5408 37.6458C37.5408 38.6614 35.8865 39.1692 34.8278 39.1692C32.7765 39.1692 32.0927 38.2419 31.8501 37.999C31.3649 37.0938 32.0927 35.7912 32.0045 35.4821C31.9163 35.173 30.9237 34.334 30.5267 34.4223C30.1297 34.5107 29.49 35.6808 29.5562 35.9899C29.6224 36.299 30.3723 37.2705 30.3723 38.2198C30.3723 39.1692 29.49 39.6328 28.3872 39.677C27.1741 39.6991 26.5344 38.8159 26.5565 38.3965C26.6226 37.1821 27.6814 37.7341 27.9902 37.712C28.299 37.6899 28.8945 36.3432 28.8283 36.1886C28.7622 36.0341 27.6814 35.2392 27.4167 35.3276C27.152 35.4159 26.7329 36.4756 26.0933 36.2107C25.0787 35.6146 26.7109 35.1068 26.2256 34.4444C25.8727 34.2236 25.4095 34.1795 25.1007 33.9587C24.5052 33.6717 23.8655 33.2522 23.3803 32.7223C23.2259 32.7885 23.1818 32.4574 23.0274 32.634L23.0715 32.9431C23.7994 34.7977 25.8507 39.4341 26.2036 39.9199C26.0712 40.7809 25.8286 41.5316 26.2477 42.3485C26.6006 43.0329 26.8212 43.7836 26.9094 44.6005C27.2843 45.5719 26.3138 46.5875 27.2182 47.3603C27.4387 47.4928 49.8044 47.4486 50.1794 47.3603C50.3999 47.2499 50.5543 47.0733 50.6205 46.8304C50.5543 46.3888 50.3117 45.5499 50.9955 43.1654C51.194 42.4589 51.8116 41.7745 51.4587 40.5381C52.3189 38.9043 53.9732 34.5327 54.4584 32.6119Z" fill="#2A2A2A"/>
<path d="M47.9958 43.2979C47.687 43.2979 47.4443 43.5407 47.4443 43.8498C47.4443 44.1589 47.687 44.4018 47.9958 44.4018C48.3046 44.4018 48.5472 44.1589 48.5472 43.8498C48.5472 43.5628 48.3046 43.2979 47.9958 43.2979Z" fill="#2A2A2A"/>
<path d="M35.4013 9.09839C34.894 8.03863 33.372 6.89055 32.8868 7.33212C32.4457 7.75161 33.8132 7.92823 34.2543 9.67243C34.4749 9.73866 34.7396 9.82698 34.8278 9.93737C34.916 10.0257 35.4895 10.4231 36.3497 11.6153C36.5262 11.8803 37.1658 12.0348 37.2761 11.9465C37.3864 11.8361 36.5482 9.8049 35.4013 9.09839Z" fill="#2A2A2A"/>
<path d="M30.6149 7.11135C30.3061 6.9568 29.468 7.53084 29.468 7.81785C29.468 8.10487 29.7327 8.34774 29.9091 8.34774C30.24 8.34774 30.9237 7.28797 30.6149 7.11135Z" fill="#2A2A2A"/>
<path d="M51.6572 31.508C50.8631 31.7729 49.275 32.1703 47.2899 30.095C45.0401 27.7326 44.9519 24.9286 45.6798 22.4558C45.7901 21.7935 45.1725 22.1467 44.7975 22.9416C44.4446 23.6922 44.224 25.4364 44.0696 25.4806C43.4741 25.6793 42.7462 22.3013 44.6431 21.3519C46.0327 20.6675 50.3117 18.2609 50.7308 17.9077C50.6867 18.835 48.3928 20.7779 47.9296 21.087C46.7164 22.1467 45.8783 23.8909 46.2312 25.304C46.4076 25.9884 46.5179 26.4079 46.9591 26.5845C47.2237 26.6287 47.2237 26.2975 47.4002 26.2092C47.6869 26.5183 47.5546 27.0702 47.709 27.3573C48.084 28.3729 48.7016 29.4326 49.4074 30.2054C50.1132 30.8015 51.194 31.1106 52.0321 30.8898C52.2527 31.2651 51.7895 31.3314 51.6572 31.508ZM32.2251 13.1608C32.2251 12.9842 32.6221 12.6309 32.9309 12.6309C33.2397 12.6309 33.1294 12.9842 32.8868 13.1388C32.7324 13.2491 32.6883 13.4037 32.4898 13.4037C32.3354 13.4037 32.2251 13.3595 32.2251 13.1608ZM31.6957 13.9557C31.9383 13.9557 32.0486 14.044 32.1589 14.3089C32.2692 14.5959 32.181 14.7063 32.0486 14.7063C31.806 14.7063 31.6516 14.618 31.6295 14.4414C31.6075 14.1323 31.4531 13.9557 31.6957 13.9557ZM43.7829 29.6313C43.2976 29.5872 41.2243 30.2716 39.2612 27.5339C38.6657 26.6949 38.2466 25.4364 38.0481 23.2507C37.8496 21.0649 39.7685 18.3272 39.3494 17.9077C38.776 18.2168 35.7983 19.7181 34.6072 21.374C34.0117 22.1909 33.3941 25.2598 33.2397 26.1871C32.975 26.1429 32.6221 23.0961 33.5264 20.3805C34.2984 18.0622 40.4523 16.1414 42.0624 15.2583C43.6726 14.3751 47.2458 12.3881 46.6282 9.6062C46.4959 8.2815 45.4813 7.22174 44.4887 6.62562C43.5623 6.07366 41.0919 5.65417 40.9817 6.09574C40.8493 6.5373 42.1286 7.13342 42.1066 7.95032C43.2756 8.50228 44.7534 9.27503 44.7313 10.8868C44.7093 12.4985 42.3933 14.7946 39.7465 15.5453C36.7247 16.4064 33.6367 17.6207 32.4015 19.1882C30.7032 21.3961 32.181 27.6443 31.034 30.0508C30.8355 30.4924 30.1297 31.1547 29.7768 31.4638C29.6224 31.6846 29.7768 31.7288 29.8429 32.0158C29.5341 32.3249 28.1887 32.8769 27.0417 32.6561C26.38 32.5236 26.0933 32.5898 25.6742 32.347C25.1007 32.0158 24.5272 31.3534 24.4169 31.0885C24.4831 31.0002 25.7845 31.6846 27.3726 31.4859C28.4092 31.3534 29.9312 30.5586 30.262 29.1898C30.9678 27.3131 29.49 23.052 32.2471 19.1441C33.747 17.0025 38.4892 14.9933 41.511 14.0881C43.0991 13.4478 42.5918 11.5712 43.3859 10.3569C43.4741 10.1802 43.3417 9.89322 43.1212 9.87115C42.6359 10.0036 40.4082 10.5114 40.2317 10.7543C40.0553 10.9971 39.3715 11.9244 39.4156 12.2777C39.9009 12.7855 41.5772 11.9024 41.0699 13.205C40.8273 13.8232 37.1879 13.3816 36.3497 13.8011C35.5116 14.2206 34.5852 15.1037 34.3425 15.8102C34.0999 16.4947 33.5926 17.0908 33.0853 17.2233C32.4015 17.157 31.6957 17.3999 31.2546 16.7155C31.1663 16.3843 31.1443 15.9648 31.1663 15.6336C33.1294 14.8388 33.9676 13.6245 34.4528 13.3375C34.9381 13.0725 36.3497 12.9842 36.5041 12.918C36.6585 12.8517 36.7688 12.2777 36.6585 12.1011C36.5482 11.9465 35.3792 11.1517 35.0263 10.7984C34.6734 10.4452 33.9014 9.47373 33.5264 9.42958C33.1515 9.38542 32.6 10.0257 31.5634 10.1802C29.3797 10.5114 29.7768 11.1296 29.4239 11.1517C29.0709 11.1738 28.9386 10.4673 28.8063 9.73867C28.6739 9.01009 29.7106 8.52436 29.2033 8.08279C29.0268 7.90617 28.4534 8.7893 28.1004 8.39189C27.8358 8.08279 28.1666 7.64122 28.9607 7.1555C29.3136 6.93472 32.578 5.4113 32.6662 5.36715C32.7544 5.32299 32.8868 5.16844 32.975 5.80872C33.0632 6.44899 33.9896 6.0295 34.122 6.82432C34.1881 7.17758 35.9527 6.31652 35.9086 5.94119C35.8865 5.67625 35.1366 5.89703 35.0925 5.76456L35.4233 5.23468L34.7396 5.10221L34.7616 4.46193C34.8498 4.35154 35.7762 4.68272 35.7983 4.41778C35.8203 4.15283 35.1366 3.84374 34.6954 3.82166C34.2543 3.79958 33.7249 4.13076 33.5264 4.13076C33.4382 3.7775 33.8573 3.71127 34.0558 3.55672C35.9527 3.02684 39.1509 3.20346 40.0332 3.55672C41.8639 4.28531 42.0624 5.23468 42.6359 5.25676C43.2094 5.27883 43.1432 4.55025 43.1432 4.55025C43.7608 5.03597 45.1063 4.68272 45.6798 4.04244C45.9665 3.71127 45.9665 2.67358 45.768 2.43072C45.2166 2.16578 45.2827 2.89437 45.0622 3.13723C44.996 3.35801 44.7534 3.88789 44.1578 3.4684C43.5844 3.04891 44.202 1.90084 44.0034 1.70213C43.7167 1.45927 42.283 2.16578 42.1948 3.2697C42.1948 3.2697 42.1727 3.60087 42.3271 3.90997C41.7316 3.79958 41.5551 2.38656 43.0109 1.76837C44.224 1.23848 44.0696 1.03978 44.5328 1.03978C45.0842 1.0177 45.8783 2.16578 46.165 2.93852C46.54 3.84374 45.4371 4.5944 45.9445 5.45546C46.7826 6.47107 47.6869 6.69185 48.9883 8.08279C50.2897 9.47373 50.9734 13.0284 50.6205 14.4193C50.2676 15.7882 46.562 18.0402 46.0768 18.1947L45.7901 18.283C46.9591 16.4505 48.5913 15.2362 49.65 13.3154C50.0691 12.2777 50.2235 10.8426 49.5177 9.93738C49.1427 9.16464 48.503 8.36981 48.0619 7.86201C47.5987 7.35421 46.2974 6.25028 45.3048 6.22821C45.0622 6.22821 45.1283 6.5373 45.2166 6.66977C46.2532 7.79577 47.4884 9.25295 47.7311 10.4893C47.9516 11.7257 47.7972 12.8076 47.3561 13.8011C47.1576 13.6024 47.2899 13.2933 47.1355 13.0063C47.2017 12.8297 47.0032 12.7413 46.9591 12.6089C46.8267 12.6972 46.6503 12.6089 46.562 12.7855C46.54 13.1608 44.1358 16.5388 42.9888 18.0622C42.5256 18.6804 41.8639 20.7779 41.489 20.6454C41.3787 19.0116 42.1286 17.7311 42.3492 17.3336C42.5697 16.9583 43.4079 15.7219 43.5182 15.3024C43.452 15.1037 43.2094 15.1479 43.0771 15.17C42.4815 15.6336 40.7611 17.0908 39.967 18.2389C39.195 19.3649 38.3348 21.948 39.0407 23.8247L39.3274 23.9572C39.6141 23.7805 39.5038 23.4273 39.5921 23.1624C40.2538 24.6637 40.4302 26.1429 41.2684 27.1365C42.1286 28.13 43.8491 29.1235 44.0696 29.2118C44.202 29.4768 43.9814 29.6313 43.7829 29.6313ZM36.7688 26.2975C36.5923 27.5118 35.8865 28.2183 35.5116 29.1898C35.7321 29.4768 35.9527 29.256 36.2174 29.1898C36.4379 29.6755 34.6072 30.4041 34.3646 30.2054C34.0999 29.8963 34.916 29.6534 35.1145 28.1742C35.2689 27.004 35.0042 24.6416 35.2689 23.5377C35.4233 22.8974 35.8865 22.1688 36.4379 21.7714C36.4379 21.7714 36.5703 22.4558 36.5703 23.3611C36.5262 23.9572 37.0776 24.2221 36.7688 26.2975ZM30.8134 14.5959C30.4605 14.7505 30.1517 14.6401 29.7547 14.6842V14.6401C29.3797 14.618 29.0048 14.2647 28.6298 14.331V14.2868C28.299 14.3531 27.946 14.1764 27.6593 14.1102C27.7475 13.6245 28.3872 13.8453 28.6739 13.6686C29.468 13.6907 30.0414 14.331 30.7693 14.2868L30.8134 14.5959ZM30.1958 11.8803C30.1958 11.5491 30.2179 11.3062 30.4164 11.3062C30.6149 11.3062 30.6811 11.4387 30.7032 11.6816C30.7252 12.0128 30.7693 12.2556 30.5708 12.2556C30.3723 12.2777 30.1958 12.079 30.1958 11.8803ZM40.3861 1.98915C40.6067 1.98915 40.6508 2.03331 40.6508 2.12162C40.6729 2.29825 40.4302 2.49695 40.2097 2.49695C39.9891 2.49695 39.967 2.4528 39.967 2.27617C39.967 2.12162 40.1656 1.98915 40.3861 1.98915ZM48.3928 5.10221C48.8339 4.96974 49.3853 5.34507 49.7382 5.80872C50.1132 6.29444 50.5985 8.03864 50.025 7.7737C49.4515 7.50875 47.7752 5.30091 48.3928 5.10221ZM54.0614 28.4832C53.8629 28.417 53.7746 28.5936 53.6202 28.6378C53.4438 29.2339 52.5615 29.6313 51.8116 29.4105C51.3484 29.2781 50.0029 28.5936 50.0029 26.43C49.9809 24.1338 52.5174 22.9636 52.0763 19.9389C52.8262 18.3713 53.5982 17.2453 53.5982 15.744C53.5982 14.7726 53.1129 13.3595 53.0909 12.7413C53.2453 12.7413 53.532 12.7413 53.6644 12.5647C53.907 11.3283 52.8482 10.5556 52.2086 9.7166C52.0321 9.31918 52.4953 9.42958 52.6056 9.14256C52.5615 8.87762 52.3409 8.56852 52.1204 8.39189C51.1278 7.59707 51.5469 4.57232 50.5323 3.42425C49.4956 2.25409 47.9737 2.56319 47.5987 2.36448C46.937 2.03331 45.8562 0.17872 45.1504 0.0683281C44.7975 0.00209283 44.6652 0.0462497 44.4005 0.222877C42.9006 1.12809 42.283 1.28264 39.9229 0.951465C39.2392 0.863151 38.4231 1.81252 37.8275 2.32033C37.6511 2.62942 36.9673 2.47488 36.1953 2.60735C35.4233 2.71774 34.6072 2.87229 33.4382 3.15931C32.7544 3.40217 32.8206 4.04244 32.4677 4.52817C32.181 5.05805 30.7252 5.5217 30.1076 5.87495C29.49 6.22821 28.4975 6.82432 27.6372 7.53083C27.3285 7.83993 26.9314 8.52436 27.4387 8.98801C28.6519 10.1361 28.0343 11.3283 28.696 11.8361C29.6003 12.5206 30.5708 12.94 30.3944 13.3816C30.2179 13.8232 29.1151 12.9621 27.9902 13.1388C27.1961 13.2712 26.7109 13.6907 26.755 14.6622C26.777 15.0154 26.755 15.3466 27.1961 15.3466C27.8137 15.3687 27.6593 14.4635 29.2695 15.17C30.5046 15.6998 30.4164 16.4947 30.7032 17.2233C30.8576 17.709 31.431 17.9298 31.6516 18.3272C31.0119 19.696 29.7988 20.9545 29.6885 22.6104C29.5783 24.2663 29.9753 28.8365 27.4829 29.6092C24.0861 30.6469 24.3508 27.6884 23.4023 28.2183C22.9832 28.4612 21.6157 31.2651 24.9684 33.3184C27.0638 34.599 30.4605 33.495 32.0266 32.6119C34.2764 32.6119 36.8129 31.8392 38.9524 29.7859C40.9375 31.9275 43.5623 32.6119 46.2532 32.6119C47.3781 33.1418 49.9809 34.7756 53.0468 33.2522C55.076 32.2366 54.7451 29.7417 54.0614 28.4832Z" fill="#2A2A2A"/>
</g>
<defs>
<clipPath id="clip0_4064_130">
<rect width="83" height="58" fill="white" transform="translate(0 0.0683289)"/>
</clipPath>
</defs>
</svg>
